# xmcd
# 
# Track frame offsets:
#     150
#     19640
#     35579
#     53477
#     73112
#     91152
#     109319
#     129729
#     149265
#     168034
#     183894
# 
# Disc length: 2677
# 
# Revision: 4
# Processed by: cddbd v1.5.2PL0 Copyright (c) Steve Scherf et al.
# Submitted via: fre:ac v1.0.27
# 
DISCID=8d0a730b
DTITLE=The Charlatans - Simpatico
DYEAR=2006
DGENRE=English Rock
TTITLE0=Blackened Blue Eyes
TTITLE1=NYC (There's No Need To Stop)
TTITLE2=For Your Entertainment
TTITLE3=Dead Mans Eye
TTITLE4=Muddy Ground
TTITLE5=City Of The Dead
TTITLE6=Road To Paradise
TTITLE7=When The Lights Go Out In London
TTITLE8=The Architect
TTITLE9=Glory Glory
TTITLE10=Sunset and Vine
EXTD=
EXTT0=
EXTT1=
EXTT2=
EXTT3=
EXTT4=
EXTT5=
EXTT6=
EXTT7=
EXTT8=
EXTT9=
EXTT10=
PLAYORDER=
